<?xml version="1.0" encoding="UTF-8"?>
<svg xmlns="http://www.w3.org/2000/svg" width="389" height="509" viewBox="0 0 389 509">
  <defs>
    <linearGradient id="pageGrad" x1="0" y1="0" x2="0" y2="1">
      <stop offset="0%"   stop-color="#e8f4fd"/>
      <stop offset="100%" stop-color="#dde8f5"/>
    </linearGradient>
    <linearGradient id="avatarGrad" x1="0" y1="0" x2="1" y2="1">
      <stop offset="0%"   stop-color="#4285F4"/>
      <stop offset="100%" stop-color="#1565C0"/>
    </linearGradient>
    <filter id="cardShadow" x="-5%" y="-5%" width="110%" height="120%">
      <feDropShadow dx="0" dy="4" stdDeviation="8" flood-color="rgba(0,0,0,0.12)"/>
    </filter>
  </defs>

  <!-- Page background (light blue like Google Pay) -->
  <rect width="389" height="509" fill="url(#pageGrad)"/>

  <!-- Avatar circle -->
  <circle cx="194" cy="38" r="26" fill="url(#avatarGrad)"/>
  <text x="194" y="46" text-anchor="middle" font-size="18" font-weight="700"
        fill="white" font-family="sans-serif">HH</text>

  <!-- Name label -->
  <text x="194" y="82" text-anchor="middle" font-size="17" font-weight="600"
        fill="#202124" font-family="sans-serif">Hari Hari</text>

  <!-- White QR card -->
  <rect x="14" y="96" width="361" height="389"
        rx="20" fill="white" filter="url(#cardShadow)"/>

  <!-- QR modules -->
  <g transform="translate(42,124)">
    <rect x="36" y="36" width="9" height="9" fill="#1a1a2e"/><rect x="54" y="36" width="9" height="9" fill="#1a1a2e"/><rect x="63" y="36" width="9" height="9" fill="#1a1a2e"/><rect x="81" y="36" width="9" height="9" fill="#1a1a2e"/><rect x="90" y="36" width="9" height="9" fill="#1a1a2e"/><rect x="99" y="36" width="9" height="9" fill="#1a1a2e"/><rect x="108" y="36" width="9" height="9" fill="#1a1a2e"/><rect x="144" y="36" width="9" height="9" fill="#1a1a2e"/><rect x="180" y="36" width="9" height="9" fill="#1a1a2e"/><rect x="207" y="36" width="9" height="9" fill="#1a1a2e"/><rect x="234" y="36" width="9" height="9" fill="#1a1a2e"/><rect x="252" y="36" width="9" height="9" fill="#1a1a2e"/><rect x="261" y="36" width="9" height="9" fill="#1a1a2e"/><rect x="270" y="36" width="9" height="9" fill="#1a1a2e"/><rect x="279" y="36" width="9" height="9" fill="#1a1a2e"/><rect x="288" y="36" width="9" height="9" fill="#1a1a2e"/><rect x="54" y="45" width="9" height="9" fill="#1a1a2e"/><rect x="63" y="45" width="9" height="9" fill="#1a1a2e"/><rect x="81" y="45" width="9" height="9" fill="#1a1a2e"/><rect x="90" y="45" width="9" height="9" fill="#1a1a2e"/><rect x="99" y="45" width="9" height="9" fill="#1a1a2e"/><rect x="126" y="45" width="9" height="9" fill="#1a1a2e"/><rect x="144" y="45" width="9" height="9" fill="#1a1a2e"/><rect x="162" y="45" width="9" height="9" fill="#1a1a2e"/><rect x="171" y="45" width="9" height="9" fill="#1a1a2e"/><rect x="180" y="45" width="9" height="9" fill="#1a1a2e"/><rect x="216" y="45" width="9" height="9" fill="#1a1a2e"/><rect x="225" y="45" width="9" height="9" fill="#1a1a2e"/><rect x="234" y="45" width="9" height="9" fill="#1a1a2e"/><rect x="243" y="45" width="9" height="9" fill="#1a1a2e"/><rect x="279" y="45" width="9" height="9" fill="#1a1a2e"/><rect x="36" y="54" width="9" height="9" fill="#1a1a2e"/><rect x="45" y="54" width="9" height="9" fill="#1a1a2e"/><rect x="72" y="54" width="9" height="9" fill="#1a1a2e"/><rect x="81" y="54" width="9" height="9" fill="#1a1a2e"/><rect x="90" y="54" width="9" height="9" fill="#1a1a2e"/><rect x="99" y="54" width="9" height="9" fill="#1a1a2e"/><rect x="108" y="54" width="9" height="9" fill="#1a1a2e"/><rect x="135" y="54" width="9" height="9" fill="#1a1a2e"/><rect x="144" y="54" width="9" height="9" fill="#1a1a2e"/><rect x="162" y="54" width="9" height="9" fill="#1a1a2e"/><rect x="171" y="54" width="9" height="9" fill="#1a1a2e"/><rect x="216" y="54" width="9" height="9" fill="#1a1a2e"/><rect x="243" y="54" width="9" height="9" fill="#1a1a2e"/><rect x="261" y="54" width="9" height="9" fill="#1a1a2e"/><rect x="270" y="54" width="9" height="9" fill="#1a1a2e"/><rect x="279" y="54" width="9" height="9" fill="#1a1a2e"/><rect x="288" y="54" width="9" height="9" fill="#1a1a2e"/><rect x="36" y="63" width="9" height="9" fill="#1a1a2e"/><rect x="45" y="63" width="9" height="9" fill="#1a1a2e"/><rect x="63" y="63" width="9" height="9" fill="#1a1a2e"/><rect x="90" y="63" width="9" height="9" fill="#1a1a2e"/><rect x="99" y="63" width="9" height="9" fill="#1a1a2e"/><rect x="108" y="63" width="9" height="9" fill="#1a1a2e"/><rect x="117" y="63" width="9" height="9" fill="#1a1a2e"/><rect x="153" y="63" width="9" height="9" fill="#1a1a2e"/><rect x="162" y="63" width="9" height="9" fill="#1a1a2e"/><rect x="171" y="63" width="9" height="9" fill="#1a1a2e"/><rect x="180" y="63" width="9" height="9" fill="#1a1a2e"/><rect x="234" y="63" width="9" height="9" fill="#1a1a2e"/><rect x="270" y="63" width="9" height="9" fill="#1a1a2e"/><rect x="288" y="63" width="9" height="9" fill="#1a1a2e"/><rect x="54" y="72" width="9" height="9" fill="#1a1a2e"/><rect x="63" y="72" width="9" height="9" fill="#1a1a2e"/><rect x="72" y="72" width="9" height="9" fill="#1a1a2e"/><rect x="81" y="72" width="9" height="9" fill="#1a1a2e"/><rect x="90" y="72" width="9" height="9" fill="#1a1a2e"/><rect x="108" y="72" width="9" height="9" fill="#1a1a2e"/><rect x="117" y="72" width="9" height="9" fill="#1a1a2e"/><rect x="144" y="72" width="9" height="9" fill="#1a1a2e"/><rect x="171" y="72" width="9" height="9" fill="#1a1a2e"/><rect x="180" y="72" width="9" height="9" fill="#1a1a2e"/><rect x="234" y="72" width="9" height="9" fill="#1a1a2e"/><rect x="252" y="72" width="9" height="9" fill="#1a1a2e"/><rect x="261" y="72" width="9" height="9" fill="#1a1a2e"/><rect x="270" y="72" width="9" height="9" fill="#1a1a2e"/><rect x="36" y="81" width="9" height="9" fill="#1a1a2e"/><rect x="90" y="81" width="9" height="9" fill="#1a1a2e"/><rect x="99" y="81" width="9" height="9" fill="#1a1a2e"/><rect x="108" y="81" width="9" height="9" fill="#1a1a2e"/><rect x="135" y="81" width="9" height="9" fill="#1a1a2e"/><rect x="162" y="81" width="9" height="9" fill="#1a1a2e"/><rect x="171" y="81" width="9" height="9" fill="#1a1a2e"/><rect x="180" y="81" width="9" height="9" fill="#1a1a2e"/><rect x="189" y="81" width="9" height="9" fill="#1a1a2e"/><rect x="252" y="81" width="9" height="9" fill="#1a1a2e"/><rect x="261" y="81" width="9" height="9" fill="#1a1a2e"/><rect x="279" y="81" width="9" height="9" fill="#1a1a2e"/><rect x="36" y="90" width="9" height="9" fill="#1a1a2e"/><rect x="63" y="90" width="9" height="9" fill="#1a1a2e"/><rect x="72" y="90" width="9" height="9" fill="#1a1a2e"/><rect x="108" y="90" width="9" height="9" fill="#1a1a2e"/><rect x="126" y="90" width="9" height="9" fill="#1a1a2e"/><rect x="144" y="90" width="9" height="9" fill="#1a1a2e"/><rect x="153" y="90" width="9" height="9" fill="#1a1a2e"/><rect x="180" y="90" width="9" height="9" fill="#1a1a2e"/><rect x="198" y="90" width="9" height="9" fill="#1a1a2e"/><rect x="216" y="90" width="9" height="9" fill="#1a1a2e"/><rect x="225" y="90" width="9" height="9" fill="#1a1a2e"/><rect x="234" y="90" width="9" height="9" fill="#1a1a2e"/><rect x="252" y="90" width="9" height="9" fill="#1a1a2e"/><rect x="261" y="90" width="9" height="9" fill="#1a1a2e"/><rect x="270" y="90" width="9" height="9" fill="#1a1a2e"/><rect x="54" y="99" width="9" height="9" fill="#1a1a2e"/><rect x="72" y="99" width="9" height="9" fill="#1a1a2e"/><rect x="81" y="99" width="9" height="9" fill="#1a1a2e"/><rect x="90" y="99" width="9" height="9" fill="#1a1a2e"/><rect x="99" y="99" width="9" height="9" fill="#1a1a2e"/><rect x="117" y="99" width="9" height="9" fill="#1a1a2e"/><rect x="135" y="99" width="9" height="9" fill="#1a1a2e"/><rect x="153" y="99" width="9" height="9" fill="#1a1a2e"/><rect x="171" y="99" width="9" height="9" fill="#1a1a2e"/><rect x="189" y="99" width="9" height="9" fill="#1a1a2e"/><rect x="207" y="99" width="9" height="9" fill="#1a1a2e"/><rect x="216" y="99" width="9" height="9" fill="#1a1a2e"/><rect x="234" y="99" width="9" height="9" fill="#1a1a2e"/><rect x="243" y="99" width="9" height="9" fill="#1a1a2e"/><rect x="252" y="99" width="9" height="9" fill="#1a1a2e"/><rect x="270" y="99" width="9" height="9" fill="#1a1a2e"/><rect x="279" y="99" width="9" height="9" fill="#1a1a2e"/><rect x="63" y="108" width="9" height="9" fill="#1a1a2e"/><rect x="81" y="108" width="9" height="9" fill="#1a1a2e"/><rect x="90" y="108" width="9" height="9" fill="#1a1a2e"/><rect x="99" y="108" width="9" height="9" fill="#1a1a2e"/><rect x="108" y="108" width="9" height="9" fill="#1a1a2e"/><rect x="117" y="108" width="9" height="9" fill="#1a1a2e"/><rect x="144" y="108" width="9" height="9" fill="#1a1a2e"/><rect x="162" y="108" width="9" height="9" fill="#1a1a2e"/><rect x="198" y="108" width="9" height="9" fill="#1a1a2e"/><rect x="243" y="108" width="9" height="9" fill="#1a1a2e"/><rect x="252" y="108" width="9" height="9" fill="#1a1a2e"/><rect x="270" y="108" width="9" height="9" fill="#1a1a2e"/><rect x="279" y="108" width="9" height="9" fill="#1a1a2e"/><rect x="36" y="117" width="9" height="9" fill="#1a1a2e"/><rect x="45" y="117" width="9" height="9" fill="#1a1a2e"/><rect x="54" y="117" width="9" height="9" fill="#1a1a2e"/><rect x="63" y="117" width="9" height="9" fill="#1a1a2e"/><rect x="99" y="117" width="9" height="9" fill="#1a1a2e"/><rect x="135" y="117" width="9" height="9" fill="#1a1a2e"/><rect x="162" y="117" width="9" height="9" fill="#1a1a2e"/><rect x="189" y="117" width="9" height="9" fill="#1a1a2e"/><rect x="207" y="117" width="9" height="9" fill="#1a1a2e"/><rect x="216" y="117" width="9" height="9" fill="#1a1a2e"/><rect x="225" y="117" width="9" height="9" fill="#1a1a2e"/><rect x="234" y="117" width="9" height="9" fill="#1a1a2e"/><rect x="243" y="117" width="9" height="9" fill="#1a1a2e"/><rect x="270" y="117" width="9" height="9" fill="#1a1a2e"/><rect x="279" y="117" width="9" height="9" fill="#1a1a2e"/><rect x="36" y="126" width="9" height="9" fill="#1a1a2e"/><rect x="45" y="126" width="9" height="9" fill="#1a1a2e"/><rect x="54" y="126" width="9" height="9" fill="#1a1a2e"/><rect x="81" y="126" width="9" height="9" fill="#1a1a2e"/><rect x="99" y="126" width="9" height="9" fill="#1a1a2e"/><rect x="117" y="126" width="9" height="9" fill="#1a1a2e"/><rect x="126" y="126" width="9" height="9" fill="#1a1a2e"/><rect x="135" y="126" width="9" height="9" fill="#1a1a2e"/><rect x="171" y="126" width="9" height="9" fill="#1a1a2e"/><rect x="180" y="126" width="9" height="9" fill="#1a1a2e"/><rect x="189" y="126" width="9" height="9" fill="#1a1a2e"/><rect x="198" y="126" width="9" height="9" fill="#1a1a2e"/><rect x="234" y="126" width="9" height="9" fill="#1a1a2e"/><rect x="252" y="126" width="9" height="9" fill="#1a1a2e"/><rect x="261" y="126" width="9" height="9" fill="#1a1a2e"/><rect x="288" y="126" width="9" height="9" fill="#1a1a2e"/><rect x="36" y="135" width="9" height="9" fill="#1a1a2e"/><rect x="45" y="135" width="9" height="9" fill="#1a1a2e"/><rect x="54" y="135" width="9" height="9" fill="#1a1a2e"/><rect x="63" y="135" width="9" height="9" fill="#1a1a2e"/><rect x="90" y="135" width="9" height="9" fill="#1a1a2e"/><rect x="99" y="135" width="9" height="9" fill="#1a1a2e"/><rect x="117" y="135" width="9" height="9" fill="#1a1a2e"/><rect x="126" y="135" width="9" height="9" fill="#1a1a2e"/><rect x="171" y="135" width="9" height="9" fill="#1a1a2e"/><rect x="198" y="135" width="9" height="9" fill="#1a1a2e"/><rect x="216" y="135" width="9" height="9" fill="#1a1a2e"/><rect x="225" y="135" width="9" height="9" fill="#1a1a2e"/><rect x="234" y="135" width="9" height="9" fill="#1a1a2e"/><rect x="243" y="135" width="9" height="9" fill="#1a1a2e"/><rect x="252" y="135" width="9" height="9" fill="#1a1a2e"/><rect x="261" y="135" width="9" height="9" fill="#1a1a2e"/><rect x="279" y="135" width="9" height="9" fill="#1a1a2e"/><rect x="45" y="144" width="9" height="9" fill="#1a1a2e"/><rect x="54" y="144" width="9" height="9" fill="#1a1a2e"/><rect x="63" y="144" width="9" height="9" fill="#1a1a2e"/><rect x="72" y="144" width="9" height="9" fill="#1a1a2e"/><rect x="108" y="144" width="9" height="9" fill="#1a1a2e"/><rect x="117" y="144" width="9" height="9" fill="#1a1a2e"/><rect x="126" y="144" width="9" height="9" fill="#1a1a2e"/><rect x="135" y="144" width="9" height="9" fill="#1a1a2e"/><rect x="189" y="144" width="9" height="9" fill="#1a1a2e"/><rect x="225" y="144" width="9" height="9" fill="#1a1a2e"/><rect x="243" y="144" width="9" height="9" fill="#1a1a2e"/><rect x="270" y="144" width="9" height="9" fill="#1a1a2e"/><rect x="279" y="144" width="9" height="9" fill="#1a1a2e"/><rect x="288" y="144" width="9" height="9" fill="#1a1a2e"/><rect x="36" y="153" width="9" height="9" fill="#1a1a2e"/><rect x="45" y="153" width="9" height="9" fill="#1a1a2e"/><rect x="63" y="153" width="9" height="9" fill="#1a1a2e"/><rect x="72" y="153" width="9" height="9" fill="#1a1a2e"/><rect x="99" y="153" width="9" height="9" fill="#1a1a2e"/><rect x="126" y="153" width="9" height="9" fill="#1a1a2e"/><rect x="135" y="153" width="9" height="9" fill="#1a1a2e"/><rect x="189" y="153" width="9" height="9" fill="#1a1a2e"/><rect x="207" y="153" width="9" height="9" fill="#1a1a2e"/><rect x="216" y="153" width="9" height="9" fill="#1a1a2e"/><rect x="225" y="153" width="9" height="9" fill="#1a1a2e"/><rect x="252" y="153" width="9" height="9" fill="#1a1a2e"/><rect x="45" y="162" width="9" height="9" fill="#1a1a2e"/><rect x="54" y="162" width="9" height="9" fill="#1a1a2e"/><rect x="63" y="162" width="9" height="9" fill="#1a1a2e"/><rect x="90" y="162" width="9" height="9" fill="#1a1a2e"/><rect x="117" y="162" width="9" height="9" fill="#1a1a2e"/><rect x="126" y="162" width="9" height="9" fill="#1a1a2e"/><rect x="135" y="162" width="9" height="9" fill="#1a1a2e"/><rect x="144" y="162" width="9" height="9" fill="#1a1a2e"/><rect x="207" y="162" width="9" height="9" fill="#1a1a2e"/><rect x="216" y="162" width="9" height="9" fill="#1a1a2e"/><rect x="234" y="162" width="9" height="9" fill="#1a1a2e"/><rect x="252" y="162" width="9" height="9" fill="#1a1a2e"/><rect x="279" y="162" width="9" height="9" fill="#1a1a2e"/><rect x="288" y="162" width="9" height="9" fill="#1a1a2e"/><rect x="63" y="171" width="9" height="9" fill="#1a1a2e"/><rect x="81" y="171" width="9" height="9" fill="#1a1a2e"/><rect x="99" y="171" width="9" height="9" fill="#1a1a2e"/><rect x="108" y="171" width="9" height="9" fill="#1a1a2e"/><rect x="135" y="171" width="9" height="9" fill="#1a1a2e"/><rect x="153" y="171" width="9" height="9" fill="#1a1a2e"/><rect x="171" y="171" width="9" height="9" fill="#1a1a2e"/><rect x="180" y="171" width="9" height="9" fill="#1a1a2e"/><rect x="189" y="171" width="9" height="9" fill="#1a1a2e"/><rect x="207" y="171" width="9" height="9" fill="#1a1a2e"/><rect x="216" y="171" width="9" height="9" fill="#1a1a2e"/><rect x="225" y="171" width="9" height="9" fill="#1a1a2e"/><rect x="270" y="171" width="9" height="9" fill="#1a1a2e"/><rect x="288" y="171" width="9" height="9" fill="#1a1a2e"/><rect x="36" y="180" width="9" height="9" fill="#1a1a2e"/><rect x="45" y="180" width="9" height="9" fill="#1a1a2e"/><rect x="54" y="180" width="9" height="9" fill="#1a1a2e"/><rect x="72" y="180" width="9" height="9" fill="#1a1a2e"/><rect x="90" y="180" width="9" height="9" fill="#1a1a2e"/><rect x="108" y="180" width="9" height="9" fill="#1a1a2e"/><rect x="126" y="180" width="9" height="9" fill="#1a1a2e"/><rect x="144" y="180" width="9" height="9" fill="#1a1a2e"/><rect x="162" y="180" width="9" height="9" fill="#1a1a2e"/><rect x="171" y="180" width="9" height="9" fill="#1a1a2e"/><rect x="189" y="180" width="9" height="9" fill="#1a1a2e"/><rect x="198" y="180" width="9" height="9" fill="#1a1a2e"/><rect x="207" y="180" width="9" height="9" fill="#1a1a2e"/><rect x="225" y="180" width="9" height="9" fill="#1a1a2e"/><rect x="234" y="180" width="9" height="9" fill="#1a1a2e"/><rect x="279" y="180" width="9" height="9" fill="#1a1a2e"/><rect x="36" y="189" width="9" height="9" fill="#1a1a2e"/><rect x="45" y="189" width="9" height="9" fill="#1a1a2e"/><rect x="54" y="189" width="9" height="9" fill="#1a1a2e"/><rect x="63" y="189" width="9" height="9" fill="#1a1a2e"/><rect x="72" y="189" width="9" height="9" fill="#1a1a2e"/><rect x="99" y="189" width="9" height="9" fill="#1a1a2e"/><rect x="117" y="189" width="9" height="9" fill="#1a1a2e"/><rect x="153" y="189" width="9" height="9" fill="#1a1a2e"/><rect x="198" y="189" width="9" height="9" fill="#1a1a2e"/><rect x="207" y="189" width="9" height="9" fill="#1a1a2e"/><rect x="225" y="189" width="9" height="9" fill="#1a1a2e"/><rect x="234" y="189" width="9" height="9" fill="#1a1a2e"/><rect x="252" y="189" width="9" height="9" fill="#1a1a2e"/><rect x="261" y="189" width="9" height="9" fill="#1a1a2e"/><rect x="270" y="189" width="9" height="9" fill="#1a1a2e"/><rect x="279" y="189" width="9" height="9" fill="#1a1a2e"/><rect x="54" y="198" width="9" height="9" fill="#1a1a2e"/><rect x="90" y="198" width="9" height="9" fill="#1a1a2e"/><rect x="117" y="198" width="9" height="9" fill="#1a1a2e"/><rect x="144" y="198" width="9" height="9" fill="#1a1a2e"/><rect x="162" y="198" width="9" height="9" fill="#1a1a2e"/><rect x="171" y="198" width="9" height="9" fill="#1a1a2e"/><rect x="180" y="198" width="9" height="9" fill="#1a1a2e"/><rect x="189" y="198" width="9" height="9" fill="#1a1a2e"/><rect x="198" y="198" width="9" height="9" fill="#1a1a2e"/><rect x="225" y="198" width="9" height="9" fill="#1a1a2e"/><rect x="234" y="198" width="9" height="9" fill="#1a1a2e"/><rect x="252" y="198" width="9" height="9" fill="#1a1a2e"/><rect x="261" y="198" width="9" height="9" fill="#1a1a2e"/><rect x="270" y="198" width="9" height="9" fill="#1a1a2e"/><rect x="36" y="207" width="9" height="9" fill="#1a1a2e"/><rect x="54" y="207" width="9" height="9" fill="#1a1a2e"/><rect x="72" y="207" width="9" height="9" fill="#1a1a2e"/><rect x="81" y="207" width="9" height="9" fill="#1a1a2e"/><rect x="90" y="207" width="9" height="9" fill="#1a1a2e"/><rect x="126" y="207" width="9" height="9" fill="#1a1a2e"/><rect x="135" y="207" width="9" height="9" fill="#1a1a2e"/><rect x="144" y="207" width="9" height="9" fill="#1a1a2e"/><rect x="153" y="207" width="9" height="9" fill="#1a1a2e"/><rect x="189" y="207" width="9" height="9" fill="#1a1a2e"/><rect x="207" y="207" width="9" height="9" fill="#1a1a2e"/><rect x="216" y="207" width="9" height="9" fill="#1a1a2e"/><rect x="243" y="207" width="9" height="9" fill="#1a1a2e"/><rect x="252" y="207" width="9" height="9" fill="#1a1a2e"/><rect x="261" y="207" width="9" height="9" fill="#1a1a2e"/><rect x="270" y="207" width="9" height="9" fill="#1a1a2e"/><rect x="279" y="207" width="9" height="9" fill="#1a1a2e"/><rect x="45" y="216" width="9" height="9" fill="#1a1a2e"/><rect x="54" y="216" width="9" height="9" fill="#1a1a2e"/><rect x="72" y="216" width="9" height="9" fill="#1a1a2e"/><rect x="81" y="216" width="9" height="9" fill="#1a1a2e"/><rect x="126" y="216" width="9" height="9" fill="#1a1a2e"/><rect x="153" y="216" width="9" height="9" fill="#1a1a2e"/><rect x="171" y="216" width="9" height="9" fill="#1a1a2e"/><rect x="180" y="216" width="9" height="9" fill="#1a1a2e"/><rect x="189" y="216" width="9" height="9" fill="#1a1a2e"/><rect x="198" y="216" width="9" height="9" fill="#1a1a2e"/><rect x="207" y="216" width="9" height="9" fill="#1a1a2e"/><rect x="216" y="216" width="9" height="9" fill="#1a1a2e"/><rect x="234" y="216" width="9" height="9" fill="#1a1a2e"/><rect x="261" y="216" width="9" height="9" fill="#1a1a2e"/><rect x="270" y="216" width="9" height="9" fill="#1a1a2e"/><rect x="279" y="216" width="9" height="9" fill="#1a1a2e"/><rect x="288" y="216" width="9" height="9" fill="#1a1a2e"/><rect x="63" y="225" width="9" height="9" fill="#1a1a2e"/><rect x="72" y="225" width="9" height="9" fill="#1a1a2e"/><rect x="81" y="225" width="9" height="9" fill="#1a1a2e"/><rect x="90" y="225" width="9" height="9" fill="#1a1a2e"/><rect x="144" y="225" width="9" height="9" fill="#1a1a2e"/><rect x="180" y="225" width="9" height="9" fill="#1a1a2e"/><rect x="198" y="225" width="9" height="9" fill="#1a1a2e"/><rect x="225" y="225" width="9" height="9" fill="#1a1a2e"/><rect x="234" y="225" width="9" height="9" fill="#1a1a2e"/><rect x="243" y="225" width="9" height="9" fill="#1a1a2e"/><rect x="252" y="225" width="9" height="9" fill="#1a1a2e"/><rect x="261" y="225" width="9" height="9" fill="#1a1a2e"/><rect x="279" y="225" width="9" height="9" fill="#1a1a2e"/><rect x="288" y="225" width="9" height="9" fill="#1a1a2e"/><rect x="54" y="234" width="9" height="9" fill="#1a1a2e"/><rect x="81" y="234" width="9" height="9" fill="#1a1a2e"/><rect x="90" y="234" width="9" height="9" fill="#1a1a2e"/><rect x="144" y="234" width="9" height="9" fill="#1a1a2e"/><rect x="162" y="234" width="9" height="9" fill="#1a1a2e"/><rect x="171" y="234" width="9" height="9" fill="#1a1a2e"/><rect x="180" y="234" width="9" height="9" fill="#1a1a2e"/><rect x="207" y="234" width="9" height="9" fill="#1a1a2e"/><rect x="261" y="234" width="9" height="9" fill="#1a1a2e"/><rect x="270" y="234" width="9" height="9" fill="#1a1a2e"/><rect x="279" y="234" width="9" height="9" fill="#1a1a2e"/><rect x="45" y="243" width="9" height="9" fill="#1a1a2e"/><rect x="72" y="243" width="9" height="9" fill="#1a1a2e"/><rect x="81" y="243" width="9" height="9" fill="#1a1a2e"/><rect x="90" y="243" width="9" height="9" fill="#1a1a2e"/><rect x="99" y="243" width="9" height="9" fill="#1a1a2e"/><rect x="162" y="243" width="9" height="9" fill="#1a1a2e"/><rect x="171" y="243" width="9" height="9" fill="#1a1a2e"/><rect x="189" y="243" width="9" height="9" fill="#1a1a2e"/><rect x="207" y="243" width="9" height="9" fill="#1a1a2e"/><rect x="234" y="243" width="9" height="9" fill="#1a1a2e"/><rect x="243" y="243" width="9" height="9" fill="#1a1a2e"/><rect x="279" y="243" width="9" height="9" fill="#1a1a2e"/><rect x="36" y="252" width="9" height="9" fill="#1a1a2e"/><rect x="54" y="252" width="9" height="9" fill="#1a1a2e"/><rect x="63" y="252" width="9" height="9" fill="#1a1a2e"/><rect x="90" y="252" width="9" height="9" fill="#1a1a2e"/><rect x="108" y="252" width="9" height="9" fill="#1a1a2e"/><rect x="126" y="252" width="9" height="9" fill="#1a1a2e"/><rect x="135" y="252" width="9" height="9" fill="#1a1a2e"/><rect x="144" y="252" width="9" height="9" fill="#1a1a2e"/><rect x="162" y="252" width="9" height="9" fill="#1a1a2e"/><rect x="171" y="252" width="9" height="9" fill="#1a1a2e"/><rect x="180" y="252" width="9" height="9" fill="#1a1a2e"/><rect x="225" y="252" width="9" height="9" fill="#1a1a2e"/><rect x="243" y="252" width="9" height="9" fill="#1a1a2e"/><rect x="252" y="252" width="9" height="9" fill="#1a1a2e"/><rect x="261" y="252" width="9" height="9" fill="#1a1a2e"/><rect x="270" y="252" width="9" height="9" fill="#1a1a2e"/><rect x="288" y="252" width="9" height="9" fill="#1a1a2e"/><rect x="45" y="261" width="9" height="9" fill="#1a1a2e"/><rect x="63" y="261" width="9" height="9" fill="#1a1a2e"/><rect x="81" y="261" width="9" height="9" fill="#1a1a2e"/><rect x="99" y="261" width="9" height="9" fill="#1a1a2e"/><rect x="117" y="261" width="9" height="9" fill="#1a1a2e"/><rect x="126" y="261" width="9" height="9" fill="#1a1a2e"/><rect x="144" y="261" width="9" height="9" fill="#1a1a2e"/><rect x="153" y="261" width="9" height="9" fill="#1a1a2e"/><rect x="162" y="261" width="9" height="9" fill="#1a1a2e"/><rect x="180" y="261" width="9" height="9" fill="#1a1a2e"/><rect x="189" y="261" width="9" height="9" fill="#1a1a2e"/><rect x="234" y="261" width="9" height="9" fill="#1a1a2e"/><rect x="252" y="261" width="9" height="9" fill="#1a1a2e"/><rect x="261" y="261" width="9" height="9" fill="#1a1a2e"/><rect x="270" y="261" width="9" height="9" fill="#1a1a2e"/><rect x="279" y="261" width="9" height="9" fill="#1a1a2e"/><rect x="288" y="261" width="9" height="9" fill="#1a1a2e"/><rect x="54" y="270" width="9" height="9" fill="#1a1a2e"/><rect x="72" y="270" width="9" height="9" fill="#1a1a2e"/><rect x="108" y="270" width="9" height="9" fill="#1a1a2e"/><rect x="153" y="270" width="9" height="9" fill="#1a1a2e"/><rect x="162" y="270" width="9" height="9" fill="#1a1a2e"/><rect x="180" y="270" width="9" height="9" fill="#1a1a2e"/><rect x="189" y="270" width="9" height="9" fill="#1a1a2e"/><rect x="207" y="270" width="9" height="9" fill="#1a1a2e"/><rect x="216" y="270" width="9" height="9" fill="#1a1a2e"/><rect x="225" y="270" width="9" height="9" fill="#1a1a2e"/><rect x="234" y="270" width="9" height="9" fill="#1a1a2e"/><rect x="270" y="270" width="9" height="9" fill="#1a1a2e"/><rect x="45" y="279" width="9" height="9" fill="#1a1a2e"/><rect x="72" y="279" width="9" height="9" fill="#1a1a2e"/><rect x="99" y="279" width="9" height="9" fill="#1a1a2e"/><rect x="117" y="279" width="9" height="9" fill="#1a1a2e"/><rect x="126" y="279" width="9" height="9" fill="#1a1a2e"/><rect x="135" y="279" width="9" height="9" fill="#1a1a2e"/><rect x="144" y="279" width="9" height="9" fill="#1a1a2e"/><rect x="153" y="279" width="9" height="9" fill="#1a1a2e"/><rect x="180" y="279" width="9" height="9" fill="#1a1a2e"/><rect x="189" y="279" width="9" height="9" fill="#1a1a2e"/><rect x="207" y="279" width="9" height="9" fill="#1a1a2e"/><rect x="216" y="279" width="9" height="9" fill="#1a1a2e"/><rect x="225" y="279" width="9" height="9" fill="#1a1a2e"/><rect x="252" y="279" width="9" height="9" fill="#1a1a2e"/><rect x="270" y="279" width="9" height="9" fill="#1a1a2e"/><rect x="288" y="279" width="9" height="9" fill="#1a1a2e"/><rect x="36" y="288" width="9" height="9" fill="#1a1a2e"/><rect x="45" y="288" width="9" height="9" fill="#1a1a2e"/><rect x="81" y="288" width="9" height="9" fill="#1a1a2e"/><rect x="90" y="288" width="9" height="9" fill="#1a1a2e"/><rect x="99" y="288" width="9" height="9" fill="#1a1a2e"/><rect x="108" y="288" width="9" height="9" fill="#1a1a2e"/><rect x="144" y="288" width="9" height="9" fill="#1a1a2e"/><rect x="162" y="288" width="9" height="9" fill="#1a1a2e"/><rect x="171" y="288" width="9" height="9" fill="#1a1a2e"/><rect x="198" y="288" width="9" height="9" fill="#1a1a2e"/><rect x="207" y="288" width="9" height="9" fill="#1a1a2e"/><rect x="216" y="288" width="9" height="9" fill="#1a1a2e"/><rect x="225" y="288" width="9" height="9" fill="#1a1a2e"/><rect x="234" y="288" width="9" height="9" fill="#1a1a2e"/><rect x="261" y="288" width="9" height="9" fill="#1a1a2e"/><rect x="270" y="288" width="9" height="9" fill="#1a1a2e"/><rect x="288" y="288" width="9" height="9" fill="#1a1a2e"/><rect x="36" y="36" width="9" height="9" fill="#1a1a2e"/><rect x="45" y="36" width="9" height="9" fill="#1a1a2e"/><rect x="54" y="36" width="9" height="9" fill="#1a1a2e"/><rect x="63" y="36" width="9" height="9" fill="#1a1a2e"/><rect x="72" y="36" width="9" height="9" fill="#1a1a2e"/><rect x="81" y="36" width="9" height="9" fill="#1a1a2e"/><rect x="90" y="36" width="9" height="9" fill="#1a1a2e"/><rect x="36" y="45" width="9" height="9" fill="#1a1a2e"/><rect x="90" y="45" width="9" height="9" fill="#1a1a2e"/><rect x="36" y="54" width="9" height="9" fill="#1a1a2e"/><rect x="54" y="54" width="9" height="9" fill="#1a1a2e"/><rect x="63" y="54" width="9" height="9" fill="#1a1a2e"/><rect x="72" y="54" width="9" height="9" fill="#1a1a2e"/><rect x="90" y="54" width="9" height="9" fill="#1a1a2e"/><rect x="36" y="63" width="9" height="9" fill="#1a1a2e"/><rect x="54" y="63" width="9" height="9" fill="#1a1a2e"/><rect x="63" y="63" width="9" height="9" fill="#1a1a2e"/><rect x="72" y="63" width="9" height="9" fill="#1a1a2e"/><rect x="90" y="63" width="9" height="9" fill="#1a1a2e"/><rect x="36" y="72" width="9" height="9" fill="#1a1a2e"/><rect x="54" y="72" width="9" height="9" fill="#1a1a2e"/><rect x="63" y="72" width="9" height="9" fill="#1a1a2e"/><rect x="72" y="72" width="9" height="9" fill="#1a1a2e"/><rect x="90" y="72" width="9" height="9" fill="#1a1a2e"/><rect x="36" y="81" width="9" height="9" fill="#1a1a2e"/><rect x="90" y="81" width="9" height="9" fill="#1a1a2e"/><rect x="36" y="90" width="9" height="9" fill="#1a1a2e"/><rect x="45" y="90" width="9" height="9" fill="#1a1a2e"/><rect x="54" y="90" width="9" height="9" fill="#1a1a2e"/><rect x="63" y="90" width="9" height="9" fill="#1a1a2e"/><rect x="72" y="90" width="9" height="9" fill="#1a1a2e"/><rect x="81" y="90" width="9" height="9" fill="#1a1a2e"/><rect x="90" y="90" width="9" height="9" fill="#1a1a2e"/><rect x="234" y="36" width="9" height="9" fill="#1a1a2e"/><rect x="243" y="36" width="9" height="9" fill="#1a1a2e"/><rect x="252" y="36" width="9" height="9" fill="#1a1a2e"/><rect x="261" y="36" width="9" height="9" fill="#1a1a2e"/><rect x="270" y="36" width="9" height="9" fill="#1a1a2e"/><rect x="279" y="36" width="9" height="9" fill="#1a1a2e"/><rect x="288" y="36" width="9" height="9" fill="#1a1a2e"/><rect x="234" y="45" width="9" height="9" fill="#1a1a2e"/><rect x="288" y="45" width="9" height="9" fill="#1a1a2e"/><rect x="234" y="54" width="9" height="9" fill="#1a1a2e"/><rect x="252" y="54" width="9" height="9" fill="#1a1a2e"/><rect x="261" y="54" width="9" height="9" fill="#1a1a2e"/><rect x="270" y="54" width="9" height="9" fill="#1a1a2e"/><rect x="288" y="54" width="9" height="9" fill="#1a1a2e"/><rect x="234" y="63" width="9" height="9" fill="#1a1a2e"/><rect x="252" y="63" width="9" height="9" fill="#1a1a2e"/><rect x="261" y="63" width="9" height="9" fill="#1a1a2e"/><rect x="270" y="63" width="9" height="9" fill="#1a1a2e"/><rect x="288" y="63" width="9" height="9" fill="#1a1a2e"/><rect x="234" y="72" width="9" height="9" fill="#1a1a2e"/><rect x="252" y="72" width="9" height="9" fill="#1a1a2e"/><rect x="261" y="72" width="9" height="9" fill="#1a1a2e"/><rect x="270" y="72" width="9" height="9" fill="#1a1a2e"/><rect x="288" y="72" width="9" height="9" fill="#1a1a2e"/><rect x="234" y="81" width="9" height="9" fill="#1a1a2e"/><rect x="288" y="81" width="9" height="9" fill="#1a1a2e"/><rect x="234" y="90" width="9" height="9" fill="#1a1a2e"/><rect x="243" y="90" width="9" height="9" fill="#1a1a2e"/><rect x="252" y="90" width="9" height="9" fill="#1a1a2e"/><rect x="261" y="90" width="9" height="9" fill="#1a1a2e"/><rect x="270" y="90" width="9" height="9" fill="#1a1a2e"/><rect x="279" y="90" width="9" height="9" fill="#1a1a2e"/><rect x="288" y="90" width="9" height="9" fill="#1a1a2e"/><rect x="36" y="234" width="9" height="9" fill="#1a1a2e"/><rect x="45" y="234" width="9" height="9" fill="#1a1a2e"/><rect x="54" y="234" width="9" height="9" fill="#1a1a2e"/><rect x="63" y="234" width="9" height="9" fill="#1a1a2e"/><rect x="72" y="234" width="9" height="9" fill="#1a1a2e"/><rect x="81" y="234" width="9" height="9" fill="#1a1a2e"/><rect x="90" y="234" width="9" height="9" fill="#1a1a2e"/><rect x="36" y="243" width="9" height="9" fill="#1a1a2e"/><rect x="90" y="243" width="9" height="9" fill="#1a1a2e"/><rect x="36" y="252" width="9" height="9" fill="#1a1a2e"/><rect x="54" y="252" width="9" height="9" fill="#1a1a2e"/><rect x="63" y="252" width="9" height="9" fill="#1a1a2e"/><rect x="72" y="252" width="9" height="9" fill="#1a1a2e"/><rect x="90" y="252" width="9" height="9" fill="#1a1a2e"/><rect x="36" y="261" width="9" height="9" fill="#1a1a2e"/><rect x="54" y="261" width="9" height="9" fill="#1a1a2e"/><rect x="63" y="261" width="9" height="9" fill="#1a1a2e"/><rect x="72" y="261" width="9" height="9" fill="#1a1a2e"/><rect x="90" y="261" width="9" height="9" fill="#1a1a2e"/><rect x="36" y="270" width="9" height="9" fill="#1a1a2e"/><rect x="54" y="270" width="9" height="9" fill="#1a1a2e"/><rect x="63" y="270" width="9" height="9" fill="#1a1a2e"/><rect x="72" y="270" width="9" height="9" fill="#1a1a2e"/><rect x="90" y="270" width="9" height="9" fill="#1a1a2e"/><rect x="36" y="279" width="9" height="9" fill="#1a1a2e"/><rect x="90" y="279" width="9" height="9" fill="#1a1a2e"/><rect x="36" y="288" width="9" height="9" fill="#1a1a2e"/><rect x="45" y="288" width="9" height="9" fill="#1a1a2e"/><rect x="54" y="288" width="9" height="9" fill="#1a1a2e"/><rect x="63" y="288" width="9" height="9" fill="#1a1a2e"/><rect x="72" y="288" width="9" height="9" fill="#1a1a2e"/><rect x="81" y="288" width="9" height="9" fill="#1a1a2e"/><rect x="90" y="288" width="9" height="9" fill="#1a1a2e"/>
  </g>

  <!-- GPay logo circle in QR centre -->
  <circle cx="194" cy="290" r="20" fill="white"/>
  <!-- Coloured G dots (simplified GPay logo) -->
  <circle cx="188" cy="286" r="5" fill="#4285F4"/>
  <circle cx="200" cy="286" r="5" fill="#EA4335"/>
  <circle cx="188" cy="296" r="5" fill="#34A853"/>
  <circle cx="200" cy="296" r="5" fill="#FBBC05"/>

  <!-- UPI ID pill -->
  <rect x="30" y="495" width="329" height="32"
        rx="16" fill="white" filter="url(#cardShadow)"/>
  <text x="194" y="516" text-anchor="middle"
        font-size="13" font-weight="600" fill="#202124" font-family="monospace">
    UPI ID: hariskanis@oksbi
  </text>

  <!-- Amount (shown only if > 0) -->
  <text x="194" y="547" text-anchor="middle" font-size="14" font-weight="700" fill="#1a73e8" font-family="sans-serif">₹49</text>

  <!-- Footer -->
  <text x="194" y="499" text-anchor="middle" font-size="11"
        fill="#5f6368" font-family="sans-serif">
    Scan to pay with any UPI app
  </text>
</svg>